<?xml version="1.0" encoding="utf-8"?>
<!-- Generator: Adobe Illustrator 24.0.2, SVG Export Plug-In . SVG Version: 6.00 Build 0)  -->
<svg version="1.1" id="_x2018_лой_x5F_1" xmlns="http://www.w3.org/2000/svg" xmlns:xlink="http://www.w3.org/1999/xlink"
	 x="0px" y="0px" viewBox="0 0 141.7 141.7" style="enable-background:new 0 0 141.7 141.7;" xml:space="preserve">
<style type="text/css">
	.st0{fill:#020202;}
	.st1{fill:#E81D25;}
</style>
<path class="st0" d="M87.8,51.2C87.8,51.2,87.8,51.2,87.8,51.2c-0.1,0-0.1,0-0.1,0c-2,0.5-3.5,2.3-3.6,4.3c-0.2,2.5,1.9,3.7,4.1,3.2
	c2-0.5,4.3-2,3.9-4.4C91.8,52.4,89.7,50.9,87.8,51.2z M89.2,57.5c-1.6,0.5-3.3,0.1-3.8-1.6c-0.4-1.4,0.1-3.2,1.6-3.6
	C89.9,51.9,92.7,56.4,89.2,57.5z"/>
<path class="st0" d="M97,50.2c1.6-0.9,2.2-2.1,2.2-3.9c0.1-2.2-1.4-4.1-3.3-5.1c-1.1-0.6-2.6,1.2-3.3,1.7c-0.2,0.2-0.4,0.3-0.6,0.5
	c-0.7-3.3-1.7-6.7-4.1-9.2c-4.7-4.8-13.5-4.7-19.6-4.3c-5.5,0.3-11.9,1.1-15.5,5.9c-1.9,2.5-2.4,5.8-3,8.8c-0.3-0.2-0.5-0.3-0.7-0.5
	c-0.5-0.5-1.1-2.1-2-2.1c-3.6-0.1-5.7,5.1-4.4,8.1c0.5,1.2,2.3,1.4,3.4,0.8c1-0.5,2.5-3.3,3-3.2c0,0,0.1,0,0.1,0
	c-0.9,4.2-1.8,8.4-1.9,12.8c-1,0.2-1.9,0.5-2.6,1.4c-0.9,1.1-0.6,3.1-0.3,4.3c0.6,2.4,2.8,1.9,4.7,1.5c0.2,0,0.5-0.1,0.7-0.1
	c0.4,1.5,0.7,3,0.9,4.5c0.1,0.7,0.1,1.5,0.5,2.2c0.5,1.1,2.5,0.5,3.4,0.5c1.6-0.1,3.4-0.1,4.3-1.6c1.1-1.7,0.4-4.7,0.2-6.7
	c4.2-0.3,8.4-0.4,12.6-0.5c5-0.1,10.2-0.4,15.3-0.2c-0.3,0.2-0.5,0.5-0.5,0.7c0.2,1.9,0.1,4.2,0.8,6c0.5,1.2,1.7,1.2,2.8,1.2
	c1.5,0,4.2,0.3,4.8-1.5c0.6-1.8,0.3-3.9,0-5.9c1.9-0.1,4-0.7,3.9-2.2c-0.1-1.7-0.2-3.9-2-4.5c-0.6-0.2-1.3-0.3-2.1-0.2c0,0,0,0,0,0
	c0.3-3.9-0.8-7.6-1.7-11.3C94.1,49.4,95.1,51.3,97,50.2z M53.2,36.8c2.9-6,13.4-5.9,19.2-5.8c5.4,0.1,12.2,1,15.5,5.7
	c1.6,2.1,2.3,4.9,2.9,7.6c-0.3,0.2-0.6,0.4-1,0.6c0.6-2.9-0.9-6.1-2.8-8.2c-0.7-0.9-2.2-2.5-3.5-2.4c-2.5,0.3-6.6,1.7-8.3-0.9
	C75,33.1,74.1,34,74,34.3c0,0.3-0.1,0.6-0.2,0.9c-0.1-0.6-0.2-1.3-0.4-1.9c-0.1-0.5-1.1,0.4-1.2,0.6c-1.5,3.3-1,1.3-1.5-0.5
	c-0.2-0.5-1.2,0.5-1.3,0.7c-0.6,2.9-1,0.5-1.5,1.8c0.3-0.9-0.1-1.9-0.3-2.7c-0.1-0.6-1.2,0.5-1.3,0.7c-0.8,2.1-6.9,0.8-8.6,1.2
	c-1.5,0.4-2.7,1.1-3.8,2.3c-2,2-2.5,5.3-2.1,8.1c-0.3-0.1-0.6-0.2-0.9-0.3C51.5,42.3,52,39.4,53.2,36.8z M78.9,60
	c-1.1-0.2-2.1-0.5-3-1.2c-0.2-0.1-0.3-0.3-0.5-0.5c0.3-0.5,0.4-1,0.5-1.5c0.2-2.6-3.5-0.8-2.3,1.7c0.1,0.2,0.2,0.3,0.3,0.5
	c-0.7,0.5-1.9,0.5-2.7-0.1v0c0.9-1,1.4-2.1,1.1-3c-0.5-1.1-2.5-0.4-3.1,0.1c-1,0.8-0.7,1.8-0.1,2.7c-0.4,0.3-0.8,0.6-1.4,0.9
	c-0.5-0.3-0.9-0.6-1.2-1.1c-0.1-0.1-0.1-0.1-0.2-0.2c0.8-0.8,1.2-1.8,0.9-3c0-0.1,0-0.1-0.1-0.1c-2.1-0.2-2.6,1.7-2,3.4
	c-1,0.7-2.1,1.2-3.2,1.5c-0.6-4.4-2.8-9.4-6.9-11.6c-0.8-0.5-1.7-1-2.5-1.4c0.1,0,0.1,0,0.2,0c2.3,0.8,4.7,1.6,7.1,1.8
	c4.4,0.2,8.9,0.6,13.4,0.6c5.7,0,12.6-0.7,17.5-4c0.2-0.1,0.4-0.3,0.6-0.4c0.1,0.5,0.2,0.9,0.3,1.4c-2,0.7-4.5,2.2-5.2,2.8
	c-3.4,2.7-5.8,6.6-6.6,10.8C79.2,60.1,79.1,60,78.9,60z M69.9,57.4c1.7-0.8,1.8-0.6,0.3,0.4C70.1,57.7,70,57.6,69.9,57.4z
	 M65.9,57.8C65.4,56.5,66.8,56.7,65.9,57.8L65.9,57.8z M50.6,46.5c0.5,0.2,1,0.4,1.5,0.5c0,0,0,0,0,0c0,0,0,0.1,0.1,0.1
	c-0.5-0.3-1.1-0.4-1.6-0.5C50.6,46.6,50.6,46.5,50.6,46.5z M66.5,34.8c0.2,0.8,0.3,1.5-0.1,2.5c-0.1,0.3,0.4,0.2,0.5,0.1
	c0.9-0.5,2-1.2,2.8-2.1c0.1,0.6,0.1,1.3,0,2c0,0.3,0.4,0.1,0.5,0c0.9-0.4,1.7-1.2,2.2-2.1c0.1,0.6,0.2,1.1,0.3,1.7
	c0.1,0.5,1-0.3,1.1-0.5c0.4-0.4,0.7-0.8,0.9-1.3c2.6,2.1,7.4-0.8,10,1.3c2.4,1.9,4.5,5.9,3.9,9.1c-1.9,1-4,1.6-6.1,2
	c0.8-4.4-3.8-8.2-8.1-7.2c-3.7,0.9-6.3,4-6.3,7.7c-0.9-0.1-1.8-0.1-2.7-0.2c-1.7-0.1-3.3-0.2-5-0.2c-2.4,0-4.9-1.1-7.1-1.8
	c-0.5-1.9-0.5-3.6-0.1-5.5c1-4.4,5.5-4.5,9.1-4.3C63.8,36.2,65.4,35.7,66.5,34.8z M70.9,46.9c0.5,0.2,1,0.5,1.5,0.8
	c0.9,0.5,2,0.6,3,0.6c1,0,1.7-0.2,2.5-0.7c1.1-0.6,1.9-0.8,1.9,0.4c-2.9,0.3-5.9,0.4-8.8,0.3c0.1-0.1,0.1-0.2,0.1-0.3
	C71,47.7,70.9,47.3,70.9,46.9z M80.1,45.5c-0.5,0.1-0.8,0.2-1.2,0.5c-1.8,1.2-3,1.3-5,0.8c-1-0.3-2.1-1.7-3.2-1
	c-0.9,0.6-1.1,1.4-1,2.4c-0.1,0-0.2,0-0.2,0c0,0,0,0,0,0c-0.9-9.4,12.7-8.1,11.9-0.4c-0.1,0-0.3,0-0.4,0.1
	C81.1,47.2,81.2,45.3,80.1,45.5z M47.4,48.2c-0.7,1.1-2,2.5-3.2,1.3c-0.8-0.8-0.2-3.5,0-4.3c0.2-1.2,1-1.8,2.5-1.8
	c0.4,0.3,1,1.3,1.3,1.7c0.4,0.5,1,0.8,1.6,1c0,0.2-0.1,0.3-0.1,0.5C48.7,46.7,48,47.2,47.4,48.2z M48.6,60.2
	c0.1-4.1,0.8-8.1,1.7-12.1c2,0.7,4.1,1.6,5.6,3.1c2.5,2.5,3.9,5.8,4.5,9.3c-1,0.2-2,0.3-3.1,0.3c-2.6,0-5.1-0.3-7.7-0.4
	c-0.4,0-0.7,0-1.1,0C48.6,60.3,48.6,60.3,48.6,60.2z M58,73.1c-0.1,0.5-0.7,0.4-1.3,0.5c-0.8,0.1-1.7,0.1-2.5,0.2
	c-1,0.1-1.6,0.2-1.8-0.9c-0.4-1.8-0.7-3.6-1-5.4c2.4-0.4,4.7-0.6,7.1-0.8c-0.3,0.2-0.5,0.5-0.5,0.7C57.9,69.1,58.4,71.2,58,73.1z
	 M90.1,72.6c-1-0.1-1.5-0.6-1.7-1.5c-0.4-1.7-0.5-3.5-0.7-5.2c1.6,0.1,3.1,0.2,4.7,0.4c0.2,0,0.7,0.1,1.2,0.1
	c0.2,1.8,0.4,3.6,0.3,5.4c0,0.2,0,0.4-0.1,0.7c-0.5,0-1,0.1-1.5,0.1C91.6,72.6,90.8,72.6,90.1,72.6z M96.8,61.2c0,0,1,3.6,1,3.6
	c-1,0.2-1.9,0.3-2.9,0.4c0-0.1,0-0.1,0-0.2c0-0.2-0.5-0.1-0.8,0.2c-0.5,0-1,0-1.4-0.1c-6.6-0.9-13.4-0.4-20-0.2
	C66.3,65,60,65.2,53.9,66c-0.8,0.1-1.8,0.4-2.8,0.6c-0.1-0.2-0.5-0.1-0.8,0.2c-2,0.4-3.9,0.4-4.6-1.3c-0.3-0.9-0.3-2-0.2-2.9
	c0.3-1.8,4.5-0.8,5.8-0.7c4.1,0.3,7.8,0.3,11.7-1.3c0.7-0.3,1.5-0.7,2.3-1.3c0.3,0.6,0.7,1.2,1.3,1.5c0.9,0.5,2.3,0.1,3.5-0.7
	c1.3,1.1,3.1,0.7,4.3-0.4c1.3,1.3,3.6,1.5,5.3,1.8c3,0.5,5.6,0.5,8.6,0.2C90.5,61.3,94.7,59.7,96.8,61.2z M93.5,59.6
	c-1.6,0.2-3.2,0.7-4.5,0.9c-2.9,0.4-5.6,0.3-8.4-0.2c0.5-3.7,2.3-6.9,4.9-9.6c0.9-0.9,4-3.1,6-3.2c0.1,0.5,0.2,1.1,0.3,1.6
	C92.6,52.6,93.6,55.9,93.5,59.6z M92.6,46.2c0-0.1,0-0.1,0-0.2c-0.1-0.6-0.2-1.2-0.4-1.8c0.3-0.2,0.6-0.5,0.9-0.7
	c1.5-1.3,2.1-1.3,3.7,0.3c0.9,0.9,1.1,2.2,1.3,3.4c0.4,4.1-2.6,1.7-3.2,0.9c-0.4-0.6-0.7-1.1-1.2-1.6C93.4,46.2,93.1,46.1,92.6,46.2
	z"/>
<path class="st0" d="M52,59.5c4.6,1.4,6.6-6.2,2.1-7.4c-1.9-0.3-3.6,1.2-4.4,2.8C48.6,57,49.8,58.9,52,59.5z M53,53.2
	c1.4,0.4,2.1,1.5,2.3,2.8c0.1,0.6,0,1.2-0.2,1.8c-0.3,0.9-1.1,0.8-1.9,0.7c-1.5-0.3-2.8-1.2-2.8-2.9C50.5,54.3,51.6,53,53,53.2z"/>
<path class="st0" d="M77.9,42.4c-1.7-0.7-4.3-0.4-5.6,1c-1.6,1.6,0.1,2.6,1.7,3c1.3,0.2,2.8-0.1,4-0.8
	C79.4,44.8,79.6,43.1,77.9,42.4z M77.3,45.2c-0.7,0.2-1.5,0.3-2.2,0.2c-0.8-0.2-2-0.5-2.2-1.4c-0.2-1.1,3.2-0.6,3.7-0.5
	c0.6,0.1,1,0.4,1.2,0.9C78.1,44.9,77.8,45,77.3,45.2z"/>
<path class="st1" d="M20.7,94.6c-1.5-0.1-3,0.2-4.5,0c-1.3-0.1-1.9-0.3-2.8,0.5c-0.3,0.2-0.1,0.6,0.3,0.6c0.6-0.1,1.1-0.1,1.7,0.1
	c1.2,0.4,0.7,1.4,0.7,2.2c0,0.6,0,1.2,0,1.7c0,1.5,0,3,0,4.5c0,0.7,0,1.8,0.2,2.9c-0.1,0.5-0.2,1-0.3,1.5c-0.6,1.8-3.4,0.5-3.9-0.6
	c-0.9-1.7-0.6-4.2-0.5-6c0.1-4,0.2-8,0.3-12c0.1-2.1,0-4.1,0.4-6.2c0.2-1.1,0.6-2.1,1.4-2.9c0.3-0.3,0.7-0.5,1.1-0.5
	c0.4,0,0.8,0.1,1.2,0.1c1.1,0.5,2.1,1.8,2.1,3c0,0.5-0.3,1.2,0.1,1.6c0.3,0.3,0.8,0.3,1.1,0c0.4-0.3,0.5-1.1,0.5-1.5
	c0.1-1.4,0.1-2.7-0.2-4.1c-0.1-0.3-0.6-0.3-0.7-0.1c-1.3,1.1-3.3,0.2-4.9,0.2c-1.3,0-2.4,0.5-3.4,1.4c-2,1.8-2.5,4.6-2.6,7.2
	c-0.1,3.2-0.3,6.3-0.3,9.5c0,2.2-0.2,4.5,0.1,6.7c0.2,1.6,0,3,1,4.3c0.7,0.9,1.8,1.4,2.8,1.8c1.9,0.6,4.2,0.5,5.8-0.6
	c0.5,0.6,1.1,1,2,1c0.2,0,0.5-0.1,0.5-0.4c-0.1-1-0.1-2,0-3c0.1-0.8-0.2-1.6-0.1-2.4c0-0.1,0-0.2-0.1-0.2c0-0.8,0-1.7,0-2.5
	c0-1.2-0.6-6.8,1-7.1C21,95.2,21.2,94.6,20.7,94.6z"/>
<path class="st1" d="M68.4,110.9c-0.2,0-0.4-0.1-0.5-0.1c-0.2,0-0.7,0.1-0.7,0.3c-0.2,0.7-1.8,0.8-2.3,0.7c-1-0.1-1.6-0.9-1.8-1.8
	c-0.3-1.4,0-2.9,0.1-4.3c0.2-2.6-0.5-5.2-2.7-6.8c-0.1-0.1-0.2-0.2-0.4-0.2c3.7-0.6,4-4.9,3.7-8c-0.5-6-8.7-4.9-13-4.4
	c-0.1,0-0.2,0.1-0.3,0.1c-0.1,0.1-0.2,0.1-0.3,0.2c-0.1,0.4-0.2,1.2,0.4,1.3c0.2,0,0.4,0.1,0.7,0c1-0.1,1.2,0.9,1.2,1.7
	c0.2,3,0.3,6,0.2,9c-0.1,2.7-0.3,5.4-0.1,8.1c0.1,1,0.1,1.8-0.9,2.7c-0.8,0.7-1.9,1-2.9,0.4c-0.5-0.3-0.7-1-0.9-1.6
	c-0.3-1.2-0.3-2.5-0.2-3.7c0,0,0,0,0,0c0-0.4,0-0.7,0.1-1.1c0.1-2.9,0-5.8,0-8.7c0-1.4-0.1-2.9,0-4.3c0.1-1.4,0.4-2.8,0.4-4.1
	c0-0.2-0.5-0.1-0.7,0c-0.4,0.3-1.4,0.1-1.9,0.1c-0.7,0-1.4,0-2,0.1c-0.1,0-0.6,0.1-0.5,0.3c0.2,0.5,0,0.4,0.5,0.7
	c0.3,0.1,0.5,0.3,0.7,0.6c0.5,0.9,0.4,2.3,0.4,3.3c0.1,5.2,0.1,10.4-0.1,15.5c0,0,0,0,0,0.1c0,0,0,0,0,0.1c0,0.1,0,0.3,0,0.4
	c-0.1,1.4-0.6,2.4-2.2,2.3c-1-0.1-1.8-0.8-2.2-1.7c-1-2.3-0.1-5.5-0.2-8c0-2.6-0.1-5.2-0.1-7.8c0-1.5-0.1-3,0.2-4.4
	c0.1-0.5,0.4-1,0.5-1.5c0-0.1-0.1-0.2-0.3-0.2c-1.3,0-3.2,0-4.5-0.1c-0.4,0-0.7-0.1-1,0c-0.9,0-1.8,0.2-2.7,0.5
	c-0.5,0.2-0.9,0.4-1.3,0.6c0,0,0,0,0,0c-0.4-0.3-0.8-0.5-1.3-0.7c-0.2,0-0.4-0.1-0.5-0.1c0,0,0,0-0.1,0c0,0,0-0.1-0.1-0.1
	c-1.2-0.3-2.6-0.1-3.7,0.5c-1.8,1-2.4,2.6-2.7,4.6c-0.4,2.6-0.1,5.3-0.1,7.8c0,1.3,0.2,2.6,0.1,3.9c0,1.1-0.1,2.2,0,3.3
	c0.4,3.5,5.4,5.1,8,3.1c3.7-2.7,2.8-7.9,2.7-11.9c-0.1-2.6,0.4-5.3-0.4-7.8c-0.3-0.9-0.8-1.7-1.4-2.3c1-0.6,2.3-0.9,3.5-0.8
	c0.9,0.3,1.5,0.8,1.7,1.8c0.1,0.9,0.1,1.9,0.1,2.9c0,2.7,0,5.3-0.1,8c0,3.6-1.2,10.5,3.8,11.2c1.8,0.2,3.8-0.1,5.3-1.2
	c0.3,0.5,0.8,0.9,1.3,1.2c0.8,0.5,1.8,0.6,2.8,0.5c4.5-1.6,4.8-0.4,7.2-0.6c0.1,0,0.6,0.1,0.7-0.1c0-0.2,0.1-0.5-0.1-0.5
	c-1.4,0.1-0.8-4.7-0.7-7c0-1.3,0.1-2.6,0.1-3.9c2,1.2,3.2,3.2,3.2,5.7c0,2.4-0.9,5.2,0.8,7.3c1.7,2.1,6.5,1.4,7.8-0.9
	C68.7,111,68.5,110.9,68.4,110.9z M27.4,87.5c0.1,0,0.4-0.1,0.5-0.2c0.7-0.1,1.2,0.2,1.6,0.7c-0.1,0.1-0.2,0.2-0.3,0.2
	c-0.7,0.6-1.2,1.2-2.2,0.5c-0.3-0.2-0.6-0.7-0.5-1.1C26.7,87.6,27,87.5,27.4,87.5z M30.3,95.2c0,3.6-0.1,7.2-0.5,10.7
	c-0.2,1.5-1.2,4.5-3.2,3c-1.1-0.8-0.9-3.1-0.9-4.3c0-3.1,0.3-6.1,0-9.2c-0.1-1.1-0.6-4.4,0-6.3c0.4,0.5,1.2,0.9,1.9,0.9
	c0.9,0.1,1.6-0.5,2.4-1.1C30.6,90.8,30.3,94.1,30.3,95.2z M56.9,98c0-1.8,0-3.7-0.1-5.5c-0.1-1.5-0.8-5.3,0.8-5.5
	c1.7-0.3,2.7,2.4,2.9,3.1c0.3,1.9,0.3,4.1-0.1,6C60,97.8,58.4,97.9,56.9,98z"/>
<path class="st1" d="M133.9,89.9c-0.3-1.1-1.1-2.1-2-2.8c-0.4-0.3-0.8-0.5-1.3-0.7c-0.2,0-0.4-0.1-0.5-0.1c0,0,0,0-0.1,0
	c0,0,0-0.1-0.1-0.1c-1.2-0.3-2.6-0.1-3.7,0.5c-1.2,0.6-1.9,1.6-2.4,2.7c-0.8-0.5-1.5-1.2-1.9-2.1c1.3-0.8,2.3-2,3-3.5
	c0.1-0.2,0.1-0.3,0-0.4c-1-1.4-3-3.4-4.6-1.6c-1.2,1.3-0.8,3.8-0.4,5.3c-0.2,0.1-0.3,0.2-0.4,0.2c-0.9,0.4-1.9,0.6-2.9,0.7
	c0.2-3.9,0.4-7.8,0.5-11.7c0-0.1-0.3-0.1-0.4-0.1c-1.1,0.2-2.1,0.9-3.3,1.1c-0.2,0-0.5,0.1-0.5,0.3c0.1,2.8,0.2,5.6,0.2,8.4
	c0,0.6,0,1.2,0,1.8c-1.6-0.2-3.2-0.7-4.7-1.3c-0.2-0.1-0.5-0.2-0.7-0.3c0-2.5,0.1-5,0.5-7.5c0-0.2-0.3-0.2-0.4-0.2
	c-1.2,0.1-2.3,0.6-3.4,0.9c-0.1,0-0.5,0.1-0.5,0.3c0.2,1.6,0.3,3.2,0.3,4.8c-0.7-0.4-1.3-0.8-1.9-1.3c-0.5-0.5-2.2,0.2-1.6,0.7
	c1,0.9,2.2,1.6,3.5,2.2c0,2-0.2,4-0.3,6c-0.1,2.6-0.2,5.1-0.2,7.7c0,2.4-0.2,4.8,0.1,7.2c0.2,1.6,1,2.7,2.6,3.2
	c1.3,0.3,2.8,0.3,4.1-0.1c1.2-0.4,1.7-1.3,1.8-2.6c0-0.8-0.2-1.9-1.2-1.9c0,0-0.1,0-0.1,0c0,0-0.1,0-0.1,0c-0.5,0.1-1.3,0.3-1,0.9
	c0.2,0.4,0.5,0.6,0.7,1.1c0.4,1-0.8,2.4-1.8,1.7c-1.7-1.1-1.2-5.1-1.1-6.8c0.1-3.5,0.2-7,0.2-10.4c0-1.5,0-3,0-4.5
	c1.8,0.6,3.5,1.1,5.4,1.3c-0.1,4.4-0.4,8.8-0.4,13.2c0,2.3-0.4,5.1,1,7.1c0.9,1.3,3.3,1.3,4.6,1c1.5-0.3,2.1-0.9,2.4-2.4
	c0.2-0.8,0.4-2.8-0.9-2.8c0,0-0.1,0-0.1,0c0,0-0.1,0-0.1,0c-0.6,0.1-1.4,0.3-1.2,1.1c0.1,0.5,0.6,0.9,0.7,1.4c0.3,1.3-1,2.2-2,1.2
	c-1.6-1.7-1-5.4-1-7.5c0-4,0.2-8.1,0.4-12.1c1.3-0.1,2.6-0.5,3.8-1c0.6,1.2,1.7,2.1,3,2.6c-0.1,0.2-0.1,0.4-0.2,0.6
	c-0.7,2.5-0.5,5.3-0.4,7.8c0.1,2.4,0,4.9,0.6,7.3c0.8,3.3,5.4,5.2,8.2,3.1c3.7-2.7,2.8-7.9,2.7-11.9
	C134.2,95.2,134.6,92.5,133.9,89.9z M121.4,83.6c0-0.3,0.1-0.8,0.3-1.1c0.1,0.1,0.2,0.1,0.3,0.2c0.3,0.3,0.6,0.6,0.8,0.9
	c0.6,0.8-0.2,1.8-1.2,2.6C121.4,85.4,121.3,84.5,121.4,83.6z M128.4,87.5c0.1,0,0.4-0.1,0.5-0.2c0.2,0,0.3,0,0.5,0
	c-0.1,0.1-0.1,0.1-0.1,0.2c-0.4,1.5-1.2,2.8-2.8,2.8C126.6,88.8,127.1,87.5,128.4,87.5z M131.3,95.2c0,3.6-0.1,7.2-0.5,10.7
	c-0.1,0.6-0.2,1.1-0.4,1.6c-0.1,0.4-0.3,0.7-0.6,1c-1.2,1.7-2.3,0.2-2.9-0.6c-0.7-1.1-0.8-2.7-0.8-3.9c-0.1-2.9,0.3-5.9,0.3-8.8
	c0-0.7-0.2-2.2-0.1-3.7c2.1,0,3.6-1.3,4.4-3.1C131.7,90.2,131.3,94,131.3,95.2z"/>
<path class="st1" d="M100.1,102.6c-0.6-0.3-1.4-0.5-2.1-0.5c-2.6,0.3-0.9,2.9-0.2,4.2c0.3,0.6,0.4,2.3-0.3,2.7
	c-0.5,0.3-1,0.5-1.5,0.8c-2.4,0.1-2.2-5.4-2.3-6.9c0-1.3-0.1-2.6-0.2-3.9c2-0.5,3.8-0.3,5.9-0.4c0.2,0,0.6-0.1,0.6-0.3
	c0-2.3,0.1-4.6-0.1-6.9c-0.2-1.7-0.3-3.5-1.7-4.6c-1.6-1.4-4.3-1.1-6.1-0.2c-3,1.5-2.4,5.7-2.4,8.5c0,3.2,0.1,6.6,0.6,9.9
	c-0.4,1.3-0.7,2.7-1.4,3.8c-0.2,0.3-0.5,0.6-0.7,0.8c-0.1,0-0.1,0.1-0.2,0.1c-0.1,0-0.2,0.1-0.4,0.1c-2.1,0.4-2.1-4.8-2.1-6.2
	c0.1-3.7-0.1-7.5,0-11.2c0-2.2,0.9-5-1.5-6.2c-1.9-0.9-4.7-0.1-6.4,1c-0.3-0.3-0.6-0.5-1.1-0.6c-1-0.3-2.7-0.4-3.7-0.3
	c-0.7,0.1-1.2,0.5-1.7,0.9c0-0.2,0-0.4-0.1-0.6c-0.3-0.5-0.8-0.5-1.3-0.6c-1.4-0.1-3.8,0.1-5.3,0c-0.2,0-0.6,0.1-0.6,0.4
	c0,0.2,0,0.4,0,0.6c0,0.2,0.2,0.3,0.4,0.3c1,0,2.1-0.3,2.6,0.9c0.3,0.8,0.1,1.8,0,2.7c-0.2,1.9-0.1,3.8-0.1,5.7
	c0,3.8,0.3,7.6,0.1,11.4c0,0.9,0,1.2-1.1,1.3c-0.2,0-0.4,0.1-0.5,0.3c-0.3,0.3,1,0.9,1.4,1c1.5,0.1,3,0.1,4.4,0.2c0,0,0.1,0,0.1,0
	c0.3,0,0.6-0.2,0.4-0.5c0-0.1,0-0.1-0.1-0.1c-0.7-0.9-0.5-2.1-0.5-3.2c0-1.4-0.1-2.8-0.2-4.2c-0.1-3.3-0.2-6.6-0.1-10
	c0-1.2,0.1-2.4,0.1-3.7c0-0.2,0.1-0.5,0.1-0.9c1-0.2,2.1-0.8,3,0.2c0.7,0.9,0.6,2.4,0.5,3.5c-0.2,2.4-0.3,4.7-0.3,7.1
	c-0.1,2.9,0.1,5.8,0.2,8.7c0,0.2,0.1,1.5-0.2,1.5c-0.2,0-0.5,0-0.7,0.1c-0.4,0.2-0.3,0.4-0.4,0.8c0,0.1,0.1,0.2,0.2,0.2
	c0.5,0.2,1.3,0,1.8-0.1c0.9-0.1,3,0.2,4.1-0.1c0.3-0.1,0.5-0.4,0.2-0.6c-1.6-0.7-1.2-2.6-1.3-4c0-1.8,0.1-3.6,0.1-5.4
	c0.1-3,0.4-6,0.4-9c0-1.1,0.1-2.3-0.3-3.3c4.3-2.9,3.4,5.2,3.3,6.9c0,4-0.3,8.1,0.3,12.1c0.3,2.2,1.9,3.9,4.1,4
	c0.9,0.2,2-0.1,2.7-0.5c1.2-0.6,2-1.5,2.5-2.7c0.8,1.8,2.1,3.2,4.3,3c2.8-0.2,4.8-2.4,5-5.1C100.6,105.1,100.7,102.9,100.1,102.6z
	 M93.5,90.4c0-0.7,0.1-1.5,0.2-2.2c0.1-0.5,0.3-0.9,0.5-1.3c0.2-0.4,0.4-0.3,0.9-0.3c1.6-0.1,1.5,3.3,1.6,4.4c0.1,1.5,1.1,6-0.8,6.6
	c-0.7,0.2-1.5,0.1-2.3,0.1C93.4,95.3,93.3,92.8,93.5,90.4z"/>
<path class="st0" d="M135.1,45.2c0.5,3.6-1.3,7.8-4.4,9.8c0.2-1.2,0.2-2.4,0-3.6c-0.6-5.5-5.7-8.7-10.5-5.6
	c-2.3,1.5-3.2,4.2-2.5,6.8c0.9,3.6,5.3,4.3,8.4,4.4c1.2,0,2.4-0.2,3.5-0.7c-0.9,4.7-4.5,8.8-9.4,9.2c-0.2,0-0.4,0-0.6,0
	c1.1-2.2,1-4.7-1.2-6.7c-2.2-2-5.4,0.4-5.8,2.8c-0.3,1.9,1.4,3.2,2.9,3.9c1,0.5,2,0.8,3,0.8c-0.9,1.2-2.3,2.2-3.5,2.9
	c-1.6,0.9-3.6,1.4-5.4,1.3c-0.2,0-0.4-0.1-0.6-0.1c0.7-0.5,1.2-1.2,1.5-2.1c0.9-2.5-4.3-1.6-4.3,1.2c0,0.6,0.3,1,0.7,1.2
	c-3.4,1.2-7-0.6-10.3,1.3c-0.5,0.3-0.7,1.1,0.1,0.6c2.2-1.3,4.6-0.3,7-0.3c1.1,0,2.3-0.5,3.3-0.9c0.2-0.1,0.5-0.2,0.7-0.3
	c0.9,0.3,2.1,0.3,2.7,0.3c2.2-0.2,4.4-1.3,6.2-2.6c1-0.7,1.8-1.5,2.5-2.5c1.5,0,3-0.4,4.4-1.1c3.8-1.8,6.3-5.5,7.1-9.5
	c3.8-2.2,6.1-7.1,5.6-11.3C136.2,44.1,135.1,44.8,135.1,45.2z M108.9,67.6c1.1,0.8,1,1.6-0.4,2.5c-0.2-0.1-0.4-0.3-0.6-0.4
	C106.9,68.8,107.3,68.1,108.9,67.6z M114.4,63.1c-1.6-1.7,0-4.5,2.3-3.9c1.7,0.5,2.6,2.7,2.7,4.2c0.1,0.7-0.1,1.4-0.3,2
	C117.3,65.2,115.5,64.3,114.4,63.1z M127.7,56c-4.4,0.4-9.8-1.8-9-7c0.6-3.9,5.2-4.4,7.8-2.8c2,1.2,2.9,3.6,3.3,5.8
	c0.2,1.1,0.2,2.3,0.1,3.4C129.2,55.7,128.5,56,127.7,56z"/>
<path class="st0" d="M7.9,47.1c-0.3,5,0.6,10.3,5.7,12.4c0.1,0,0.1,0.1,0.2,0.1c1.3,4.1,4.7,7.5,8.9,8.6c0.7,0.2,1.6,0.2,2.6,0.1
	c0.9,2.1,3.2,3.9,5.6,4.8c1.1,0.4,2.4,0.5,3.6,0.3c4,3.1,9.2-0.7,13.3,0.8c0.4,0.1,1.2-0.8,0.9-0.9c-1.8-0.6-3.5-0.1-5.3,0.1
	c-2.5,0.3-4.9,0.4-7.4-0.5c-0.1,0-0.1-0.1-0.1-0.1c0.2-0.2,0.5-0.4,0.7-0.7c0.9-1.3,0-3.9-1.8-3.3c-1.7,0.6-1.8,2.4-1,3.7
	c-0.3,0-0.5,0-0.7,0c-1.9-0.2-3.7-1.4-5.2-2.7c-0.5-0.5-1-1-1.3-1.7c2.8-0.6,5.6-2.1,5.6-4.7c-0.1-3.7-4.5-2.5-6-0.5
	c-1.1,1.5-1.4,3-1.2,4.3c-1.2-0.1-2.3-0.3-2.9-0.5c-2.4-0.9-4.3-2.8-5.8-4.9c-0.4-0.6-0.7-1.2-1-2c3.2,0.6,6.6-0.4,9.2-2.4
	c4.2-3.2,3.5-8.9-1.3-10.8c-4.6-1.9-8.5,2.2-9.6,6.3c-0.4,1.7-0.5,3.4-0.2,5C10,55.9,8.7,50.9,9,46.4C9,46.1,8,46.7,7.9,47.1z
	 M34.3,70.9c0.4-1,0.8-1.2,1.3-0.6c1,0.9,0.4,1.5-0.5,1.9C34.8,71.8,34.5,71.4,34.3,70.9z M31.2,63.8c0.5,2.6-2.3,3.5-4.9,3.5
	c-0.2-0.6-0.3-1.2-0.4-1.8C25.8,62.5,30.5,60.3,31.2,63.8z M21.8,47.5c2.1,0.5,3.8,2,4.5,4c1.4,4.4-3.6,7.2-7.2,7.6
	c-1.5,0.2-2.9,0-4-0.4C13.6,53.5,15.1,46,21.8,47.5z"/>
</svg>
