<svg width="160" height="120" viewBox="0 0 160 120" fill="none" xmlns="http://www.w3.org/2000/svg">
<path fill-rule="evenodd" clip-rule="evenodd" d="M18.6481 0.764648C11.5469 2.06726 9.0465 2.93567 9.34655 3.91263C9.74662 4.78104 9.0465 5.3238 7.44624 5.3238C5.54593 5.3238 5.14587 5.758 5.64595 7.16917C6.00845 8.1134 9.2004 9.68505 10.5103 10.2716C8.02453 9.45195 1.82194 8.68908 3.04553 10.4257C3.94567 11.5112 3.74564 11.8369 2.04537 11.8369C-0.255009 11.8369 -0.555057 12.5967 0.84517 14.9849C1.44527 16.0704 2.94551 16.2875 5.84598 15.8533C9.94665 15.3105 10.8468 15.8533 8.84647 18.0243C7.34623 19.6526 10.4467 22.692 13.7473 22.8005C15.0127 22.915 15.611 22.9691 15.6155 23.0583C15.6195 23.1383 15.1458 23.2465 14.2473 23.4518C11.3469 24.1032 11.3469 25.5143 14.0473 27.1426C15.7476 28.1195 15.9476 28.5537 14.8474 29.3136C14.478 29.5323 14.2326 29.7388 14.1037 29.9536C7.28428 29.8719 5.49072 30.2446 4.42973 31.4847C2.92948 33.113 2.92948 33.3301 4.62976 34.7412C5.41322 35.3596 9.072 36.1234 10.9331 36.5119C11.6854 36.6689 12.144 36.7646 12 36.7646C11.3999 36.7646 5.52991 37.0208 6.63009 37.8892C7.33612 38.4852 8.65273 38.966 9.82952 39.3956C11.6534 40.0616 13.1414 40.6049 11.5 41.2646C10.0375 41.8599 3.50521 41.8118 1.78045 41.7991C1.61795 41.7979 1.49813 41.7971 1.42924 41.7971C-1.07117 41.7971 -0.0710034 43.8595 2.72945 44.6194C4.32971 44.945 6.63008 45.5964 8.03031 46.0306L10.4307 46.7904L8.23034 48.8529C6.13 50.9154 5.22986 52.8693 6.7301 52.4351C7.23018 52.3265 8.63041 52.8693 9.93062 53.6291C11.7309 54.7147 12.031 55.2574 10.9308 56.0173C9.44577 57.0246 9.75989 57.658 13.152 58.3545C11.5418 58.7566 13.8657 58.9427 16.3162 59.1391C18.32 59.2996 20.4086 59.4669 20.5 59.7647C20.9001 60.6331 9.0465 61.7704 7.44624 61.7704C5.54593 61.7704 5.14587 62.2046 5.64595 63.6158C6.14603 64.9184 5.84598 65.244 4.7458 64.7013C2.64546 63.8329 1.74532 65.0269 3.04553 66.8723C3.94567 67.9578 3.74564 68.2835 2.04537 68.2835C-0.255009 68.2835 -0.555057 69.0433 0.84517 71.4314C1.41613 72.4642 13.4187 73.104 17.0812 72.7897C13.9587 73.1884 5.62992 74.2646 5.62992 74.2646C5.62992 74.2646 10.447 79.1386 13.7475 79.2471C13.2979 79.9928 14.5895 79.7086 15.2513 79.563C15.466 79.5157 15.6144 79.483 15.6155 79.5049C15.6195 79.5849 15.1458 79.6931 14.2473 79.8984C11.3469 80.5497 11.3469 81.9609 14.0473 83.5892C15.7476 84.5661 15.9476 85.0003 14.8474 85.7602C14.478 85.9789 14.2326 86.1854 14.1037 86.4002C7.28428 86.3185 5.49072 86.6912 4.42973 87.9313C3.43283 89.0133 3.53998 89.0645 4.22297 89.3911C4.56782 89.5561 5.05946 89.7912 5.62992 90.2646C6.7301 91.1331 6.13 92.8161 5.62992 92.8161C5.02983 92.8161 5.52991 93.4674 6.63009 94.3358C7.54557 95.1086 13.625 95.5721 19.0247 95.9838C24.2435 96.3817 28.8272 96.7311 27.5 97.2647C25.8997 97.916 2.22937 98.2437 1.42924 98.2437C0.441872 98.2437 1.79637 98.3623 3.96962 98.5528C7.29988 98.8446 12.5527 99.3048 14.2473 99.7647C15.0359 99.9251 13.1976 100.481 11.2974 101.055C9.34149 101.646 7.32009 102.257 8.03031 102.477L22 102.477L8.23034 105.299C6.13 107.362 5.22986 109.316 6.7301 108.882C7.23018 108.773 8.63041 109.316 9.93062 110.076C11.7309 111.161 12.031 111.704 10.9308 112.464C8.53039 114.092 10.8308 114.743 23.2328 116.263C55.7381 119.954 123.949 121.039 141.352 118C145.642 117.213 141.81 116.735 138.037 116.265C135.565 115.956 133.119 115.651 133 115.265C132.6 114.396 142.784 113.765 144.385 113.765C146.285 113.765 154.854 113.007 154.354 111.595L145.753 110.265C145.753 110.265 158.255 110.184 156.954 108.339C156.054 107.253 156.254 106.928 157.955 106.928C160.255 106.928 160.555 106.168 159.155 103.78C158.555 102.694 157.055 102.477 154.154 102.911C150.053 103.454 149.153 102.911 151.154 100.74C152.654 99.1121 145.153 98.2437 145.153 98.2437L144.385 95.7063L145.753 95.3128C148.653 94.6615 148.653 93.2503 145.953 91.622C144.252 90.6451 144.052 90.2109 145.153 89.451C145.522 89.2323 145.767 89.0258 145.896 88.811C152.716 88.8928 154.509 88.52 155.57 87.2799C157.071 85.6517 157.071 85.4345 155.37 84.0234C154.27 83.155 153.87 82.3951 154.37 82.3951C154.97 82.3951 154.47 81.7438 153.37 80.8754C151.57 79.3557 151.57 79.2471 154.27 78.1616C155.87 77.5103 157.771 76.9676 158.571 76.9676C161.071 76.9676 160.071 74.9051 157.271 74.1452C155.67 73.8196 153.37 73.1683 151.97 72.7341L149.569 71.9742L151.77 69.9117C153.87 67.8493 146.848 67.7646 146.848 67.7646C146.848 67.7646 155.454 65.5245 154.154 64.7646C152.354 63.6791 153.27 62.0245 154.37 61.2647C155.855 60.2573 149.069 59.2647 149.069 59.2647C149.069 59.2647 136.97 59.0163 136.767 58.3545C136.367 57.4861 150.954 56.9942 152.554 56.9942C154.454 56.9942 154.854 56.56 154.354 55.1489C153.854 53.8462 154.154 53.5206 155.254 54.0634C157.355 54.9318 158.255 53.7377 156.954 51.8923C156.054 50.8068 156.254 50.4812 157.955 50.4812C160.255 50.4812 160.555 49.7213 159.155 47.3332C158.555 46.2477 157.055 46.0306 154.154 46.4648C150.053 47.0075 149.769 44.4357 151.77 42.2646C153.27 40.6364 149.553 39.626 146.253 39.5175C144.987 39.403 144.389 39.3489 144.385 39.2597C144.38 39.1797 144.854 39.0715 145.752 38.8662C146.495 38.6994 147.285 38.587 148.004 38.4847C150.091 38.1876 151.578 37.976 149.569 36.7647C149.415 36.6757 149.242 36.5782 149.058 36.4737C147.215 35.4299 144.153 33.6951 145.153 33.0044C145.522 32.7857 145.767 32.5792 145.896 32.3644C152.716 32.4462 154.509 32.0734 155.57 30.8333C156.482 29.8441 155.8 29.6296 154.743 29.2972C154.06 29.0824 153.221 28.8185 152.554 28.2647C151.454 27.3962 153.87 25.9485 154.37 25.9485C154.97 25.9485 154.47 25.2972 153.37 24.4288C151.57 22.9091 151.57 22.8005 154.27 21.715C155.87 21.0637 157.771 20.521 158.571 20.521C161.071 20.521 160.071 18.4585 157.271 17.6986C155.67 17.373 153.37 16.7217 151.97 16.2875L149.569 15.5276L151.77 13.4651C153.87 11.4027 154.77 9.44874 153.27 9.88295C152.77 9.9915 151.37 9.44874 150.069 8.68888C148.269 7.60337 147.969 7.06062 149.069 6.30076C151.47 4.67249 149.169 4.02118 136.767 2.50147C122.128 0.839243 101.732 1.621 81.4748 2.39742C56.754 3.34494 32.2403 4.28453 18.6481 0.764648ZM19.5 22.8005H32L27 24L22 23.4518L19.5 22.8005ZM38.5 97.2647C40.0617 97.2295 53 95.9838 53 95.9838C43.3443 95.9838 25 97.5681 38.5 97.2647ZM102 59.2647C98.8202 59.0776 117.84 58.4118 128 58.3545C129.953 58.3435 133.58 56.9041 133 58.3545C131.55 61.9804 127.524 59.0125 124 59.2647C115.43 59.8779 106 59.5 102 59.2647Z" fill="#EC1515"/>
</svg>
