<svg width="161" height="120" viewBox="0 0 161 120" fill="none" xmlns="http://www.w3.org/2000/svg">
<g clip-path="url(#clip0_2002_293)">
<path fill-rule="evenodd" clip-rule="evenodd" d="M19.1481 0.764648C12.0469 2.06726 9.5465 2.93567 9.84655 3.91263C10.2466 4.78104 9.5465 5.3238 7.94624 5.3238C6.04593 5.3238 5.64587 5.758 6.14595 7.16917C6.50845 8.1134 9.7004 9.68505 11.0103 10.2716C8.52453 9.45195 2.32194 8.68908 3.54553 10.4257C4.44567 11.5112 4.24564 11.8369 2.54537 11.8369C0.244993 11.8369 -0.0550548 12.5967 1.34517 14.9849C1.94527 16.0704 3.44551 16.2875 6.34598 15.8533C10.4467 15.3105 11.3468 15.8533 9.34647 18.0243C7.84623 19.6526 10.9467 22.692 14.2473 22.8005C15.5127 22.915 16.111 22.9691 16.1155 23.0583C16.1195 23.1383 15.6458 23.2465 14.7473 23.4518C11.8469 24.1032 11.8469 25.5143 14.5473 27.1426C16.2476 28.1195 16.4476 28.5537 15.3474 29.3136C14.978 29.5323 14.7326 29.7388 14.6037 29.9536C7.78428 29.8719 5.99072 30.2446 4.92973 31.4847C3.42948 33.113 3.42948 33.3301 5.12976 34.7412C5.91322 35.3596 9.572 36.1234 11.4331 36.5119C12.1854 36.6689 12.644 36.7646 12.5 36.7646C11.8999 36.7646 6.02991 37.0208 7.13009 37.8892C7.83612 38.4852 9.15273 38.966 10.3295 39.3956C12.1534 40.0616 13.6414 40.6049 12 41.2646C10.5375 41.8599 4.00521 41.8118 2.28045 41.7991C2.11795 41.7979 1.99813 41.7971 1.92924 41.7971C-0.571168 41.7971 0.428999 43.8595 3.22945 44.6194C4.82971 44.945 7.13008 45.5964 8.53031 46.0306L10.9307 46.7904L8.73034 48.8529C6.63 50.9154 5.72986 52.8693 7.2301 52.4351C7.73018 52.3265 9.13041 52.8693 10.4306 53.6291C12.2309 54.7147 12.531 55.2574 11.4308 56.0173C9.94577 57.0246 10.2599 57.658 13.652 58.3545C12.0418 58.7566 14.3657 58.9427 16.8162 59.1391C18.82 59.2996 20.9086 59.4669 21 59.7647C21.4001 60.6331 9.5465 61.7704 7.94624 61.7704C6.04593 61.7704 5.64587 62.2046 6.14595 63.6158C6.64603 64.9184 6.34598 65.244 5.2458 64.7013C3.14546 63.8329 2.24532 65.0269 3.54553 66.8723C4.44567 67.9578 4.24564 68.2835 2.54537 68.2835C0.244993 68.2835 -0.0550548 69.0433 1.34517 71.4314C1.91613 72.4642 13.9187 73.104 17.5812 72.7897C14.4587 73.1884 6.12992 74.2646 6.12992 74.2646C6.12992 74.2646 10.947 79.1386 14.2475 79.2471C13.7979 79.9928 15.0895 79.7086 15.7513 79.563C15.966 79.5157 16.1144 79.483 16.1155 79.5049C16.1195 79.5849 15.6458 79.6931 14.7473 79.8984C11.8469 80.5497 11.8469 81.9609 14.5473 83.5892C16.2476 84.5661 16.4476 85.0003 15.3474 85.7602C14.978 85.9789 14.7326 86.1854 14.6037 86.4002C7.78428 86.3185 5.99072 86.6912 4.92973 87.9313C3.93283 89.0133 4.03998 89.0645 4.72297 89.3911C5.06782 89.5561 5.55946 89.7912 6.12992 90.2646C7.2301 91.1331 6.63 92.8161 6.12992 92.8161C5.52983 92.8161 6.02991 93.4674 7.13009 94.3358C8.04557 95.1086 14.125 95.5721 19.5247 95.9838C24.7435 96.3817 29.3272 96.7311 28 97.2647C26.3997 97.916 2.72937 98.2437 1.92924 98.2437C0.941874 98.2437 2.29637 98.3623 4.46962 98.5528C7.79988 98.8446 13.0527 99.3048 14.7473 99.7647C15.5359 99.9251 13.6976 100.481 11.7974 101.055C9.84149 101.646 7.82009 102.257 8.53031 102.477H22.5L8.73034 105.299C6.63 107.362 5.72986 109.316 7.2301 108.882C7.73018 108.773 9.13041 109.316 10.4306 110.076C12.2309 111.161 12.531 111.704 11.4308 112.464C9.03039 114.092 11.3308 114.743 23.7328 116.263C56.2381 119.954 124.449 121.039 141.852 118C146.142 117.213 142.31 116.735 138.537 116.265C136.065 115.956 133.619 115.651 133.5 115.265C133.1 114.396 143.284 113.765 144.885 113.765C146.785 113.765 155.354 113.007 154.854 111.595L146.253 110.265C146.253 110.265 158.755 110.184 157.454 108.339C156.554 107.253 156.754 106.928 158.455 106.928C160.755 106.928 161.055 106.168 159.655 103.78C159.055 102.694 157.555 102.477 154.654 102.911C150.553 103.454 149.653 102.911 151.654 100.74C153.154 99.1121 145.653 98.2437 145.653 98.2437L144.885 95.7063L146.253 95.3128C149.153 94.6615 149.153 93.2503 146.453 91.622C144.752 90.6451 144.552 90.2109 145.653 89.451C146.022 89.2323 146.267 89.0258 146.396 88.811C153.216 88.8928 155.009 88.52 156.07 87.2799C157.571 85.6517 157.571 85.4345 155.87 84.0234C154.77 83.155 154.37 82.3951 154.87 82.3951C155.47 82.3951 154.97 81.7438 153.87 80.8754C152.07 79.3557 152.07 79.2471 154.77 78.1616C156.37 77.5103 158.271 76.9676 159.071 76.9676C161.571 76.9676 160.571 74.9051 157.771 74.1452C156.17 73.8196 153.87 73.1683 152.47 72.7341L150.069 71.9742L152.27 69.9117C154.37 67.8493 147.348 67.7646 147.348 67.7646C147.348 67.7646 155.954 65.5245 154.654 64.7646C152.854 63.6791 153.77 62.0245 154.87 61.2647C156.355 60.2573 149.569 59.2647 149.569 59.2647C149.569 59.2647 137.47 59.0163 137.267 58.3545C136.867 57.4861 151.454 56.9942 153.054 56.9942C154.954 56.9942 155.354 56.56 154.854 55.1489C154.354 53.8462 154.654 53.5206 155.754 54.0634C157.855 54.9318 158.755 53.7377 157.454 51.8923C156.554 50.8068 156.754 50.4812 158.455 50.4812C160.755 50.4812 161.055 49.7213 159.655 47.3332C159.055 46.2477 157.555 46.0306 154.654 46.4648C150.553 47.0075 150.269 44.4357 152.27 42.2646C153.77 40.6364 150.053 39.626 146.753 39.5175C145.487 39.403 144.889 39.3489 144.885 39.2597C144.88 39.1797 145.354 39.0715 146.252 38.8662C146.995 38.6994 147.785 38.587 148.504 38.4847C150.591 38.1876 152.078 37.976 150.069 36.7647C149.915 36.6757 149.742 36.5782 149.558 36.4737C147.715 35.4299 144.653 33.6951 145.653 33.0044C146.022 32.7857 146.267 32.5792 146.396 32.3644C153.216 32.4462 155.009 32.0734 156.07 30.8333C156.982 29.8441 156.3 29.6296 155.243 29.2972C154.56 29.0824 153.721 28.8185 153.054 28.2647C151.954 27.3962 154.37 25.9485 154.87 25.9485C155.47 25.9485 154.97 25.2972 153.87 24.4288C152.07 22.9091 152.07 22.8005 154.77 21.715C156.37 21.0637 158.271 20.521 159.071 20.521C161.571 20.521 160.571 18.4585 157.771 17.6986C156.17 17.373 153.87 16.7217 152.47 16.2875L150.069 15.5276L152.27 13.4651C154.37 11.4027 155.27 9.44874 153.77 9.88295C153.27 9.9915 151.87 9.44874 150.569 8.68888C148.769 7.60337 148.469 7.06062 149.569 6.30076C151.97 4.67249 149.669 4.02118 137.267 2.50147C122.628 0.839244 102.232 1.621 81.9748 2.39742C57.254 3.34494 32.7403 4.28453 19.1481 0.764648ZM20 22.8005H32.5L27.5 24L22.5 23.4518L20 22.8005ZM39 97.2647C40.5617 97.2295 53.5 95.9838 53.5 95.9838C43.8443 95.9838 25.5 97.5681 39 97.2647ZM102.5 59.2647C99.3202 59.0776 118.34 58.4118 128.5 58.3545C130.453 58.3435 134.08 56.9041 133.5 58.3545C132.05 61.9804 128.024 59.0125 124.5 59.2647C115.93 59.8779 106.5 59.5 102.5 59.2647Z" fill="#8E2713"/>
</g>
<defs>
<clipPath id="clip0_2002_293">
<rect width="160" height="120" fill="white" transform="translate(0.5)"/>
</clipPath>
</defs>
</svg>
